<svg width="158" height="50" viewBox="0 0 158 50" fill="none" xmlns="http://www.w3.org/2000/svg">
<path d="M6.45203 0.000127762C6.48294 9.5195e-05 6.51386 6.26285e-05 6.54571 2.90748e-05C6.6309 -3.51454e-05 6.71609 1.3522e-05 6.80128 0.000111481C6.89454 0.000190068 6.9878 0.000119131 7.08106 6.79881e-05C7.24493 -1.50758e-06 7.4088 2.3376e-05 7.57267 0.000110315C7.81799 0.000239953 8.0633 0.000221669 8.30861 0.000174869C8.72673 9.9366e-05 9.14485 0.000144386 9.56296 0.000254988C9.98663 0.000366567 10.4103 0.000422461 10.834 0.000410365C10.8741 0.000409269 10.8741 0.000409269 10.9151 0.00040815C11.0516 0.000404165 11.188 0.000399274 11.3245 0.000394063C12.3122 0.000358203 13.2999 0.000445605 14.2876 0.000598353C15.2657 0.000749262 16.2438 0.000847431 17.222 0.000874892C17.2523 0.000875769 17.2827 0.000876646 17.314 0.000877549C17.5915 0.00088553 17.8689 0.00089286 18.1463 0.000899411C18.836 0.000915703 19.5257 0.000940148 20.2154 0.000970125C20.2625 0.000972163 20.2625 0.000972163 20.3106 0.000974242C21.8384 0.00104104 23.3662 0.00120176 24.894 0.00137018C25.4242 0.00142858 25.9543 0.00148656 26.4845 0.00154281C26.5338 0.00154805 26.5338 0.00154805 26.5842 0.00155339C28.1127 0.00171504 29.6413 0.00180997 31.1699 0.00188769C31.2692 0.00189274 31.3684 0.00189781 31.4676 0.0019029C32.1253 0.00193652 32.7829 0.001969 33.4406 0.00200071C34.7491 0.00206382 36.0577 0.00213368 37.3663 0.00220818C37.4286 0.00221173 37.4909 0.00221527 37.5532 0.00221881C40.3586 0.00237814 43.1639 0.00261608 45.9693 0.00288809C46.0087 0.0028919 46.0087 0.0028919 46.0489 0.0028958C47.3627 0.00302322 48.6764 0.00315506 49.9902 0.00329244C49.9906 1.34437 49.991 2.68545 49.9914 4.02654C49.9914 4.05278 49.9914 4.07902 49.9914 4.10606C49.9923 6.91825 49.993 9.73044 49.9934 12.5426C49.9934 12.6051 49.9935 12.6676 49.9935 12.7301C49.9937 14.0414 49.9939 15.3527 49.9941 16.664C49.9942 17.3228 49.9943 17.9815 49.9944 18.6402C49.9944 18.7396 49.9944 18.839 49.9944 18.9383C49.9947 20.4683 49.995 21.9983 49.9954 23.5282C49.9955 23.5611 49.9955 23.594 49.9955 23.6279C49.9957 24.1582 49.9958 24.6885 49.996 25.2188C49.9965 26.7463 49.997 28.2739 49.9972 29.8015C49.9972 29.8329 49.9972 29.8643 49.9972 29.8967C49.9973 30.5864 49.9973 31.2762 49.9974 31.9659C49.9974 32.2435 49.9974 32.521 49.9975 32.7986C49.9975 32.8289 49.9975 32.8593 49.9975 32.8906C49.9975 33.869 49.9979 34.8474 49.9983 35.8258C49.9988 36.8116 49.999 37.7973 49.9989 38.783C49.9989 38.9193 49.9989 39.0556 49.9988 39.1919C49.9988 39.2186 49.9988 39.2453 49.9988 39.2728C49.9988 39.6955 49.999 40.1181 49.9994 40.5408C49.9997 40.9566 49.9997 41.3725 49.9995 41.7883C49.9994 42.0319 49.9995 42.2756 49.9998 42.5192C50.0001 42.6813 50 42.8433 49.9998 43.0054C49.9996 43.0971 49.9996 43.1888 49.9999 43.2806C50.0013 43.6994 49.982 44.1047 49.9138 44.5183C49.9086 44.5499 49.9034 44.5815 49.8981 44.614C49.8862 44.6828 49.8727 44.751 49.8581 44.8193C49.8502 44.8565 49.8502 44.8565 49.8421 44.8943C49.5588 46.1729 48.9771 47.3115 48.0798 48.264C48.0622 48.2827 48.0446 48.3013 48.0265 48.3205C46.9455 49.4351 45.3159 49.9553 43.7953 49.9991C43.714 49.9999 43.6326 50.0001 43.5512 49.9999C43.5049 49.9999 43.5049 49.9999 43.4576 50C43.3724 50 43.2872 50 43.202 49.9999C43.1087 49.9998 43.0155 49.9999 42.9222 49.9999C42.7583 50 42.5945 50 42.4306 49.9999C42.1853 49.9998 41.94 49.9998 41.6947 49.9998C41.2765 49.9999 40.8584 49.9999 40.4403 49.9997C40.0166 49.9996 39.593 49.9996 39.1693 49.9996C39.1291 49.9996 39.1291 49.9996 39.0882 49.9996C38.9517 49.9996 38.8152 49.9996 38.6788 49.9996C37.6911 49.9996 36.7034 49.9996 35.7157 49.9994C34.7376 49.9993 33.7594 49.9992 32.7813 49.9991C32.7509 49.9991 32.7206 49.9991 32.6893 49.9991C32.4118 49.9991 32.1344 49.9991 31.8569 49.9991C31.1672 49.9991 30.4775 49.9991 29.7878 49.999C29.7407 49.999 29.7407 49.999 29.6927 49.999C28.1649 49.999 26.6371 49.9988 25.1093 49.9986C24.5791 49.9986 24.0489 49.9985 23.5187 49.9985C23.4694 49.9985 23.4694 49.9985 23.4191 49.9984C21.8905 49.9983 20.3619 49.9982 18.8333 49.9981C18.7341 49.9981 18.6349 49.9981 18.5356 49.9981C17.878 49.9981 17.2203 49.998 16.5627 49.998C15.2541 49.9979 13.9456 49.9979 12.637 49.9978C12.5747 49.9978 12.5124 49.9978 12.4501 49.9978C9.6447 49.9976 6.83933 49.9974 4.03396 49.9971C4.00769 49.9971 3.98142 49.9971 3.95436 49.9971C2.6406 49.997 1.32683 49.9968 0.0130681 49.9967C0.0125076 48.6555 0.0119707 47.3143 0.0114512 45.9731C0.011441 45.9469 0.0114306 45.9207 0.0114201 45.8936C0.010331 43.0809 0.00939159 40.2682 0.00875376 37.4555C0.00873956 37.393 0.00872522 37.3305 0.00871101 37.268C0.0084132 35.9563 0.00813645 34.6445 0.0078839 33.3328C0.00775701 32.6738 0.00762607 32.0149 0.00749133 31.3559C0.00747103 31.2565 0.00745088 31.1571 0.0074307 31.0577C0.00711898 29.5274 0.00672089 27.9971 0.00607187 26.4669C0.00605792 26.434 0.00604388 26.4011 0.0060295 26.3672C0.00580409 25.8369 0.0055713 25.3066 0.00533765 24.7762C0.00466465 23.2484 0.00404565 21.7206 0.00378177 20.1928C0.00377631 20.1614 0.00377067 20.13 0.00376505 20.0976C0.00364626 19.4075 0.00355529 18.7175 0.00349026 18.0275C0.0034636 17.7498 0.00343286 17.4721 0.00340086 17.1945C0.00339745 17.1641 0.00339426 17.1337 0.00339075 17.1024C0.00327911 16.1239 0.00284387 15.1454 0.00223871 14.1669C0.00163039 13.1809 0.00134073 12.1949 0.00149089 11.2089C0.00151158 11.0725 0.0015285 10.9362 0.00154336 10.7998C0.0015464 10.773 0.00154955 10.7463 0.00155269 10.7188C0.00159141 10.2961 0.00128798 9.87354 0.000840235 9.45094C0.000406581 9.03495 0.000338601 8.61896 0.000654446 8.20297C0.000828507 7.95937 0.000727404 7.71578 0.000207853 7.47219C-0.000109928 7.30997 -5.11475e-05 7.14776 0.000301136 6.98554C0.000490045 6.89386 0.0005316 6.80219 0.000104075 6.71052C-0.00795295 4.86332 0.654977 3.08274 1.92351 1.73599C1.94206 1.71605 1.96061 1.69611 1.97973 1.67557C2.14165 1.50699 2.3231 1.36659 2.50938 1.22637C2.52373 1.21543 2.53808 1.20448 2.55287 1.1932C2.79625 1.00842 3.05361 0.857602 3.3245 0.716756C3.34317 0.706935 3.36183 0.697114 3.38107 0.686995C4.31578 0.200816 5.40429 -0.00226245 6.45203 0.000127762ZM16.8249 14.9351C16.8083 14.9394 16.7916 14.9438 16.7745 14.9483C15.9176 15.1794 15.1838 15.7147 14.7297 16.4824C14.294 17.2513 14.1648 18.2249 14.3889 19.0812C14.5186 19.5493 14.7284 19.9889 15.0419 20.3625C15.0602 20.3843 15.0784 20.4062 15.0973 20.4287C15.6684 21.0852 16.4662 21.4848 17.3344 21.5601C18.2007 21.601 19.0393 21.4237 19.7288 20.8721C19.7427 20.8611 19.7566 20.85 19.7709 20.8387C20.4573 20.2884 20.8975 19.4885 20.9953 18.6101C21.0732 17.5917 20.8019 16.6836 20.1364 15.9033C19.6229 15.3244 18.8191 14.9211 18.0476 14.8586C17.6391 14.839 17.223 14.8303 16.8249 14.9351ZM29.9439 15.9848C29.7842 16.1645 29.6527 16.3554 29.5357 16.5658C29.5272 16.581 29.5186 16.5962 29.5098 16.6119C29.3076 16.9749 29.175 17.3752 29.1282 17.7889C29.124 17.824 29.124 17.824 29.1197 17.8598C29.0309 18.7031 29.2591 19.5952 29.7831 20.2662C29.8754 20.3783 29.9711 20.4862 30.0707 20.5918C30.0862 20.609 30.1018 20.6262 30.1178 20.644C30.632 21.1911 31.4608 21.5295 32.2048 21.5633C33.1783 21.5878 34.0675 21.3424 34.7929 20.665C35.3543 20.1282 35.6883 19.4472 35.802 18.6808C35.807 18.6477 35.807 18.6477 35.8121 18.614C35.9181 17.7645 35.6906 16.8764 35.1907 16.1836C35.1341 16.1141 35.0759 16.0484 35.0139 15.9837C34.9662 15.9338 34.9235 15.8823 34.8802 15.8285C34.5142 15.4099 33.9691 15.1308 33.4426 14.9781C33.4214 14.9719 33.4001 14.9657 33.3782 14.9593C32.1224 14.6138 30.8124 15.0376 29.9439 15.9848ZM11.1955 29.1789C11.177 29.1927 11.1585 29.2065 11.1394 29.2208C10.7766 29.5144 10.5114 30.0164 10.4568 30.4784C10.4105 31.0682 10.512 31.6264 10.9007 32.0903C10.9546 32.1499 11.01 32.2066 11.0682 32.262C11.0924 32.2871 11.0924 32.2871 11.1171 32.3126C11.2392 32.4382 11.3666 32.5512 11.5033 32.6606C11.5664 32.7116 11.628 32.764 11.6893 32.8172C12.6926 33.6841 13.8628 34.3684 15.0419 34.963C15.0708 34.9776 15.0998 34.9922 15.1296 35.0073C15.933 35.4103 16.765 35.7413 17.6146 36.0332C17.6414 36.0424 17.6414 36.0424 17.6687 36.0519C19.4939 36.6789 21.401 37.0503 23.322 37.2117C23.3472 37.2138 23.3724 37.2159 23.3984 37.2181C24.0221 37.2699 24.6433 37.2871 25.2691 37.2865C25.2873 37.2865 25.3055 37.2865 25.3243 37.2865C25.9143 37.2862 26.502 37.2778 27.0904 37.2308C27.1104 37.2293 27.1305 37.2277 27.1512 37.2261C29.4108 37.0513 31.653 36.5825 35.1142 35.1669C35.13 35.1592 35.1458 35.1516 35.162 35.1437C35.9779 34.7473 36.7598 34.3038 37.5087 33.7909C37.5266 33.7786 37.5446 33.7663 37.5631 33.7536C38.2021 33.3141 38.8039 32.8193 39.3681 32.2875C39.3977 32.2605 39.3977 32.2605 39.4279 32.2329C39.7589 31.9202 39.9674 31.4594 39.9867 31.0061C39.9928 30.7537 39.9893 30.5146 39.9031 30.2745C39.896 30.2528 39.8889 30.231 39.8816 30.2086C39.6969 29.691 39.2261 29.3239 38.7486 29.0916C38.2609 28.8826 37.6516 28.8289 37.152 29.026C36.8244 29.1622 36.5856 29.3672 36.329 29.6062C36.1948 29.7299 36.0523 29.8417 35.9073 29.9524C35.865 29.985 35.8229 30.0178 35.7809 30.0508C35.5779 30.2097 35.3689 30.3568 35.154 30.4991C35.1374 30.5101 35.1208 30.5211 35.1037 30.5325C34.5743 30.8833 34.0257 31.1873 33.4585 31.4721C33.4364 31.4833 33.4144 31.4945 33.3916 31.506C31.6382 32.387 29.6614 32.8714 25.8161 33.2355C25.7756 33.2357 25.7352 33.2358 25.6947 33.236C25.5661 33.2365 25.4375 33.2366 25.3089 33.2367C25.276 33.2367 25.276 33.2367 25.2425 33.2367C24.5839 33.237 23.9293 33.2292 23.2736 33.1597C23.218 33.1538 23.1624 33.1482 23.1067 33.1427C21.0893 32.9405 19.0846 32.4482 17.248 31.5798C17.1882 31.5517 17.1282 31.5243 17.0679 31.4973C16.7551 31.356 16.4592 31.186 16.1627 31.0135C16.1403 31.0006 16.118 30.9877 16.095 30.9744C15.3259 30.5292 14.5736 29.985 13.9577 29.3397C13.5741 28.9533 13.0355 28.7414 12.4946 28.7393C12.0112 28.7401 11.5808 28.8887 11.1955 29.1789Z" fill="white"/>
<path d="M65.9 38C64.72 38 64.13 37.41 64.13 36.23V18.77C64.13 17.59 64.72 17 65.9 17H76.4C77.58 17 78.17 17.54 78.17 18.62C78.17 19.68 77.58 20.21 76.4 20.21H67.58V25.67H75.47C76.65 25.67 77.24 26.21 77.24 27.29C77.24 28.37 76.65 28.91 75.47 28.91H67.58V34.79H76.73C77.91 34.79 78.5 35.32 78.5 36.38C78.5 37.46 77.91 38 76.73 38H65.9ZM82.8781 38C81.9781 38 81.4381 37.78 81.2581 37.34C81.0781 36.9 81.1581 36.4 81.4981 35.84L87.1081 27.05L82.0381 19.16C81.5381 18.46 81.4181 17.93 81.6781 17.57C81.9581 17.19 82.5281 17 83.3881 17C84.3281 17 85.0381 17.4 85.5181 18.2L88.9681 23.9L92.4181 18.2C92.8981 17.4 93.6081 17 94.5481 17C96.2081 17 96.6581 17.72 95.8981 19.16L90.8581 27.05L96.4381 35.84C96.8381 36.46 96.9181 36.98 96.6781 37.4C96.4581 37.8 95.9081 38 95.0281 38C94.1081 38 93.4081 37.6 92.9281 36.8L88.9681 30.2L85.0081 36.8C84.5481 37.6 83.8381 38 82.8781 38ZM108.076 38.48C106.176 38.48 104.476 38.03 102.976 37.13C101.496 36.23 100.336 34.96 99.4963 33.32C98.6563 31.66 98.2363 29.72 98.2363 27.5C98.2363 25.26 98.6563 23.32 99.4963 21.68C100.336 20.02 101.496 18.74 102.976 17.84C104.476 16.92 106.176 16.46 108.076 16.46C109.976 16.46 111.656 16.92 113.116 17.84C114.596 18.74 115.756 20.02 116.596 21.68C117.456 23.32 117.886 25.26 117.886 27.5C117.886 29.72 117.456 31.66 116.596 33.32C115.756 34.96 114.596 36.23 113.116 37.13C111.656 38.03 109.976 38.48 108.076 38.48ZM108.076 35.12C109.336 35.12 110.426 34.81 111.346 34.19C112.266 33.55 112.976 32.66 113.476 31.52C113.996 30.36 114.256 29.02 114.256 27.5C114.256 25.96 113.996 24.62 113.476 23.48C112.976 22.32 112.266 21.43 111.346 20.81C110.426 20.17 109.336 19.85 108.076 19.85C106.836 19.85 105.746 20.17 104.806 20.81C103.866 21.43 103.136 22.32 102.616 23.48C102.116 24.62 101.866 25.96 101.866 27.5C101.866 29.02 102.116 30.36 102.616 31.52C103.136 32.66 103.866 33.55 104.806 34.19C105.746 34.81 106.836 35.12 108.076 35.12ZM122.793 38C121.653 38 121.083 37.41 121.083 36.23V18.77C121.083 17.59 121.673 17 122.853 17H130.683C132.643 17 134.193 17.46 135.333 18.38C136.493 19.3 137.073 20.85 137.073 23.03C137.073 24.87 136.653 26.27 135.813 27.23C134.973 28.17 133.813 28.75 132.333 28.97L135.783 35.9C136.083 36.52 136.143 37.03 135.963 37.43C135.783 37.81 135.403 38 134.823 38H134.253C133.253 38 132.563 37.55 132.183 36.65L128.733 29.12H124.533V36.23C124.533 37.41 123.953 38 122.793 38ZM124.533 25.88H130.203C131.223 25.88 132.013 25.66 132.573 25.22C133.133 24.78 133.413 24.05 133.413 23.03C133.413 22.03 133.133 21.31 132.573 20.87C132.013 20.43 131.223 20.21 130.203 20.21H124.533V25.88ZM140.422 38C139.842 38 139.442 37.83 139.222 37.49C139.002 37.15 139.002 36.69 139.222 36.11L146.002 18.32C146.302 17.44 146.932 17 147.892 17H148.132C149.092 17 149.722 17.44 150.022 18.32L156.832 36.11C157.052 36.69 157.042 37.15 156.802 37.49C156.582 37.83 156.182 38 155.602 38H155.032C154.092 38 153.472 37.55 153.172 36.65L152.002 33.38H143.932L142.762 36.65C142.462 37.55 141.842 38 140.902 38H140.422ZM145.072 30.17H150.892L148.012 21.98L145.072 30.17Z" fill="white"/>
</svg>
